# xmcd
#
# Track frame offsets:
#	182
#	12000
#	23452
#	37837
#	48790
#	61025
#	72027
#	84587
#	95677
#	114257
#
# Disc length: 1651
#
# Revision: 6
# Processed by: cddbd v1.5.1PL0 Copyright (c) Steve Scherf et al.
# Submitted via: ExactAudioCopy v0.90b4
# Normalized: r5:DSETVAR1
#
DISCID=6306710a
DTITLE=Various Artist - Country Shots: Barroom Biggies
DYEAR=1994
DGENRE=Country
TTITLE0=Jerry Lee Lewis - What's Made Milwaukee Famous (Has Made A Loser Out of Me)
TTITLE1=Mel Tillis - Stomp Them Grapes
TTITLE2=George Jones - If Drinkin' Don't Kill Me (Her Memory Will)
TTITLE3=Hank Thompson - On Tap, In The Can, or In The Bottle
TTITLE4=Shelly West - José Cuervo
TTITLE5=Eddie Rabbitt - Drinkin' My Baby (Off My Mind)
TTITLE6=Moe Bandy - Barstool Mountain
TTITLE7=Mickey Gilley - The Power of Positive Drinkin'
TTITLE8=Willie Nelson - Whiskey River
TTITLE9=Loretta Lynn - Don't Come Home A-Drinkin' (With Lovin' On Your Mind)
EXTD=
EXTT0=
EXTT1=
EXTT2=
EXTT3=
EXTT4=
EXTT5=
EXTT6=
EXTT7=
EXTT8=
EXTT9=
PLAYORDER=
